<svg xmlns="http://www.w3.org/2000/svg" width="291" height="264"><path fill="#FFF" d="M0 0h291v264H0z" id="svg-layer-0" style="pointer-events: all;"/><path fill="#00539F" d="M245.813 73.688c9.8 7.152 16.046 16.37 18.187 28.312 1.259 14.18 1.198 28.759-8.316 40.195-9.726 10.425-20.607 15.02-34.774 16.024-14.659.426-28.33-2.851-39.285-12.969-8.725-9.457-12.392-22.878-11.91-35.625 1.366-12.573 4.46-23.977 13.914-32.805 17.087-13.118 43.822-14.267 62.184-3.132M146 74l1-5h18v30c-16.434.846-16.434.846-20.625-1.418a90 90 0 0 1-3.629-3.758c-4.38-4.575-10.012-5.85-16.164-6.062-4.2-.05-8.385.063-12.582.238.23 1.872.23 1.872 1 4 1.868 1.15 1.868 1.15 4.32 2.043l2.747 1.001c3.884 1.266 7.795 2.378 11.738 3.44 26.12 7.046 26.12 7.046 33.195 18.516 3.479 6.37 4.005 13.058 2.566 20.133-2.38 7.542-7.524 13.074-14.441 16.742-12.121 5.422-24.642 5.651-37.125 1.125a207 207 0 0 1-11-5v6H86v-32c15.567-.845 15.567-.845 19.406 1.418 1.656 1.832 1.656 1.832 3.117 3.762 3.19 3.932 8.584 5.907 13.477 6.82 2.331.118 4.666.175 7 .188l3.688.042c3.1-.215 4.778-.494 7.312-2.23l1-2a381 381 0 0 0-15.906-5.05q-2.835-.845-5.669-1.692a820 820 0 0 0-5.765-1.678C102.434 120.198 93.915 115.665 87 106c-3.143-6.013-3.122-14.15-1.242-20.602 2.906-6.842 6.363-11.382 13.18-14.648l3.09-1.516C116.298 63.308 132.863 67.208 146 74M58 166c2.988.322 3.938.933 6.008 3.188L66.125 172c4.452 5.667 9.383 10.356 14.875 15l1.898-1.094 2.477-1.406 2.46-1.406C90 182 90 182 92 182l-1.645-2.23-2.168-2.958-2.144-2.917A104 104 0 0 1 81 166c3.195.32 4.666.67 6.984 2.96l1.766 2.415 1.797 2.398C93 176 93 176 94 179l17-6-1-7h3l2 5 1.984-.184c7.003-.642 14.008-1.241 21.016-1.816l1-3h3l1 3 22 2 3-5h3l-2 7 2.195.586 2.93.789 2.883.773c3.031.863 6.01 1.834 8.992 2.852l2.082-2.625 2.73-3.375 1.37-1.734c1.206-1.48 2.507-2.879 3.818-4.266h3c-1.34 4.765-4.235 7.704-7.54 11.23C190 179 190 179 190 181l11 6c13.544-11.874 13.544-11.874 18.504-19.23L221 166h3c-4.796 14.876-23.75 27.966-37.009 35.007C181.19 203.9 175.178 206.063 169 208l-3.137 1.031C143.717 215.033 118.468 211.916 98 202l-3.238-1.559C80.645 193.26 66.292 181.753 58 168zM208.791 38.83C221.72 51.344 221.72 51.344 224 58c-3.043-.316-3.982-.981-6.113-3.258l-2.2-2.867c-4.3-5.432-8.47-10.565-14.125-14.625-3.76-.367-5.797 1.444-8.792 3.586C191 42 191 42 189 42l1.137 1.504A570 570 0 0 1 200 57l-4 1-9-12c-7.83 1.118-7.83 1.118-11.812 2.563C171.19 50 171.19 50 169 50l1 2.313C171 55 171 55 171 58h-3l-3-6-3.254.438-4.309.562c-.704.095-1.408.19-2.134.29-4.477.577-8.79.805-13.303.71v4h-3v-4l-2.965-.148c-7.197-.41-14.038-1.01-21.035-2.852l-.75 2.938L113 57l-4 1 2-8a478 478 0 0 0-6.75-2.625l-1.922-.773c-4.673-1.753-4.673-1.753-7.496-1.102-3.497 2.863-5.986 6.59-8.71 10.164L84 58h-3c1.372-4.065 3.22-6.674 6.125-9.812l2.195-2.395L91 44c-1.096-3.288-1.477-3.643-4.312-5.312l-1.801-1.114C83 37 83 37 80.997 37.714 74.277 42.04 69.252 47.82 64.413 54.088 63.339 55.444 62.174 56.73 61 58h-3c8.766-18.795 29.024-32.43 47.945-39.547 35.72-12.633 75.069-5.768 102.846 20.376M24 68h56v20l-1 1H67v46h12c1.556 1.556 1.13 3.06 1.133 5.219l.004 2.574-.012 2.707.012 2.707-.004 2.574-.004 2.377C80 155 80 155 79 156a91 91 0 0 1-5.162.114H70.5l-3.63-.016-3.695-.005c-3.913-.005-7.826-.018-11.739-.03q-3.968-.008-7.935-.014Q33.752 156.03 24 156v-21l12-1 1-45H24z" id="svg-layer-1" style="pointer-events: all;"/><path fill="#FFF" d="m217.313 88.688 3.425-.114c4.069.531 5.497 1.404 8.262 4.426 3.172 6.323 3.461 11.944 3.375 18.938l.035 2.841c-.027 6.535-.416 13.776-4.894 18.929-3.412 2.909-7.99 2.573-12.266 2.503-3.369-.316-5.505-1.25-8.25-3.211-4.162-6.602-4.205-13.183-4.25-20.75l-.062-2.594c-.039-6.354.425-13.357 4.791-18.346 3.131-2.697 5.79-2.536 9.833-2.623" id="svg-layer-2" style="pointer-events: all;"/><path fill="#00539F" d="M199 217c4.125 3.139 5.988 5.94 7 11 .751 7.986.175 15.002-4 22-2.939 2.7-4.536 2.95-8.5 3.375-3.812-.408-5.568-.932-8.5-3.375-4.219-7.082-5.174-14.447-3.469-22.512 1.338-4.397 2.682-7.647 6.469-10.488 3.86-1.287 7.135-1.095 11 0M99 217c3.744 2.93 5.558 5.523 7 10 .71 7.723.82 15.125-3 22-3.207 2.915-5.23 3.876-9.5 4.563-4.703-.756-6.185-2.171-9.5-5.563-3.669-5.944-3.582-14.168-2.375-20.875 1.171-4.382 3.142-6.97 6.375-10.125 3.857-1.286 7.139-1.101 11 0M71 217c4.846 4.214 6.455 8.66 7 15-.01 7.606-.855 13.68-6.25 19.375-3.555 2.101-5.677 2.134-9.75 1.625-3.552-1.322-5.373-3.146-7.312-6.312-2.918-6.404-2.73-14.24-1.145-21.004 1.408-3.601 3.476-6.262 6.457-8.684 3.872-1.29 7.142-1.198 11 0M42 217c4.152 3.092 5.954 5.959 7 11 .643 6.728.056 12.9-3 19-2.227 2.608-3.943 4.472-7 6-4.928.372-8.169.284-12-3-1.312-3.187-1.312-3.187-2-6l4-1 .875 1.938C31 247 31 247 33 248c2.937.313 2.937.313 6 0 3.16-2.833 3.534-5.897 4-10l-1.562 1c-3.331 1.366-5.864 1.313-9.438 1-3.833-1.704-5.436-3.16-7-7-.582-4.227-.446-7.921 1.188-11.875 4.615-5.411 9.15-6.096 15.812-4.125M242 217h19v4l-15 1-1 8 2-1c4.773-.398 7.085-.475 11.375 1.75 2.535 2.173 3.446 3.229 4.625 6.25.334 4.715-.395 8.772-3.375 12.5-3.648 3.474-6.574 3.86-11.559 3.777-3.505-.47-5.485-1.942-8.066-4.277-1.375-3.25-1.375-3.25-2-6h5l.875 1.938C245 247 245 247 247 248c3.542.385 5.363.42 8.375-1.562 2.239-3.359 2.2-5.485 1.625-9.438-2.244-2.675-3.595-2.959-7.062-3.312C247 234 247 234 244 236h-4q.214-3.345.438-6.687c.08-1.242.162-2.483.246-3.762C241 222 241 222 242 217" id="svg-layer-3" style="pointer-events: all;"/><path fill="#FFF" d="M130 27c7.875.875 7.875.875 9 2 .099 1.55.13 3.104.133 4.656l.004 2.848-.012 2.996.012 2.996-.004 2.848-.004 2.63C139 50 139 50 138 51c-7.174-.125-14.216-.577-21-3 1.462-4.113 3.49-7.456 5.938-11.062l2.09-3.098A184 184 0 0 1 130 27" id="svg-layer-4" style="pointer-events: all;"/><path fill="#00539F" d="M172.313 217.25c2.878 1.875 3.803 2.48 4.687 5.75.664 6.969.664 6.969-1.61 10.5-3.62 3.787-7.966 5.967-12.492 8.535C160 244 160 244 158 248h19v4h-24c1.165-9.32 1.165-9.32 5-13 2.98-1.95 2.98-1.95 6.188-3.687 5.714-3.117 5.714-3.117 6.812-5.313.25-3.5.25-3.5 0-7-3-2-3-2-6.5-2.062-3.5 1.062-3.5 1.062-4.621 2.695-.816 1.93-.816 1.93-1.879 5.367h-4c-.346-2.903-.519-5.125 1.008-7.7 4.8-5.935 10.222-6.723 17.304-4.05" id="svg-layer-5" style="pointer-events: all;"/><path fill="#FFF" d="M139 173v22l-9 1c-13-17.548-13-17.548-13-21 15.143-4.286 15.143-4.286 22-2M195 219.938c3 1.062 3 1.062 4.875 3.812 2.149 6.129 2.22 13.887.219 20.031-1.334 2.705-2.41 3.839-5.094 5.219-2.873-.14-4.448-.586-6.75-2.312-3.577-4.829-2.673-12.009-2.25-17.688 1.283-5.141 3.177-8.941 9-9.062M95 220c3 1 3 1 4.664 3.559 1.526 3.931 1.78 7.352 1.711 11.504l.035 2.103c-.025 4.435-.626 7.348-3.41 10.834-2.875 1.125-2.875 1.125-6 1-2.898-2.19-4.6-3.86-5.812-7.312-.496-7.11-.469-13.18 2.812-19.688 3-2 3-2 6-2M66.5 220.125c3.059 1.07 3.908 2.088 5.5 4.875 1.868 5.992 2.038 13.205-.312 19.063C70 247 70 247 67 249c-3 0-3 0-6-1-2.924-4.551-3.407-8.211-3.375-13.562l-.023-3.88c.418-3.741 1.12-5.6 3.398-8.558 3-2 3-2 5.5-1.875M143 172a64 64 0 0 1 4.473.34l2.724.283 2.865.315 2.877.302q3.532.373 7.061.76c-.869 6.32-4.478 10.834-8 16l-1.293 2.082c-1.144 1.668-1.144 1.668-3.707 3.918-2.745.001-5.28-.546-8-1-.029-3.646-.047-7.292-.062-10.937l-.026-3.155-.01-2.998-.016-2.777C142 173 142 173 143 172M142 28c9 0 9 0 11.488 2.16l1.825 2.903 1.957 3.035L159 39l1.387 2.184C162.104 43.985 163 45.664 163 49q-3.28.508-6.562 1l-3.692.563C149 51 149 51 142 51zM141.313 197.625h2.254c6.121.127 11.024 1.452 16.433 4.375q2 1.002 4 2v2c-5.522 1.516-10.723 2.447-16.437 2.75l-2.327.126c-5.62.227-11.089-.043-16.673-.689l-2.168-.249c-3.474-.466-5.427-.96-8.395-2.938a258 258 0 0 1 3.563-2.375l2.003-1.336c5.721-3.03 11.403-3.677 17.746-3.664M166.488 27.234C178.83 35.91 178.83 35.91 183 42c-5.732 2.853-10.599 4.534-17 5l-1.355-2.379c-5.545-9.635-5.545-9.635-8.583-13.746C154 28 154 28 154 26c5.221-2.812 7.79-1.67 12.488 1.234M166 176c6.42.467 11.241 2.193 17 5-4.04 5.096-8.322 9.163-13.562 13l-1.96 1.52c-4.756 3.512-4.756 3.512-8.255 3.355L157 198l-3-1c1.351-3.771 3.07-6.714 5.438-9.937 2.577-3.592 4.759-7.033 6.562-11.063M164 18c-7.94 7.427-17.243 7.663-27.586 7.36-5.489-.325-10.65-1.534-15.414-4.36l-2-3c14.539-4.115 30.415-3.978 45 0M114 176c1.097 1.39 1.097 1.39 2.277 3.324l1.307 2.12 1.353 2.244 1.342 2.185A1172 1172 0 0 1 127 197c-2.474 1.618-3.79 2.014-6.777 1.82-3.853-.98-6.04-2.56-9.16-5.007l-3.137-2.446c-3.37-2.727-6.682-5.491-9.926-8.367 2.479-2.933 4.97-3.939 8.563-5.187l2.94-1.043C112 176 112 176 114 176M122.25 24.125C125 25 125 25 127 27l-2.082 3.105-2.73 4.082-1.37 2.042C118.452 39.769 116.15 43.322 114 47c-5.691-1.097-10.746-2.54-16-5 1.382-4.147 4.329-5.88 7.688-8.437l1.857-1.448A310 310 0 0 1 113 28l1.681-1.243c2.848-2.014 3.982-2.77 7.569-2.632M186 183c4.11 1.45 7.433 3.511 11 6-1.324 3.972-3.711 4.939-7.187 6.875l-1.87 1.059C181.56 200.432 174.929 202.81 168 205l-4-5 2.781-1.941c6.705-4.715 13.227-9.44 19.219-15.059M167 19c10.82 2.85 22.253 6.529 30 15a274 274 0 0 1-4.25 3.063l-2.39 1.722C188 40 188 40 185.991 39.941c-2.69-1.271-4.472-3.005-6.617-5.066C174.557 30.395 169.48 26.626 164 23zM97 185c1.973 1.602 1.973 1.602 4.063 3.625 4.895 4.52 10.232 7.963 15.937 11.375l-2 4c-6.201-.465-10.658-1.91-16.125-4.812l-2.05-1.042c-4.14-2.133-7.999-4.494-11.825-7.146 1.1-3.3 1.456-3.61 4.313-5.25l1.8-1.078c2.455-.874 3.485-.664 5.887.328M114 19l3 2v2a115 115 0 0 1-5.937 4.125C105.263 31.005 100.114 35.232 95 40l-9-5v-3c8.775-5.374 17.828-10.807 28-13" id="svg-layer-6" style="pointer-events: all;"/><path fill="#00539F" d="M223 216h3v36l-5-1v-24h-7l-1-4 1.68-.516c5.99-2.004 5.99-2.004 7.82-4.672z" id="svg-layer-7" style="pointer-events: all;"/><path fill="#FFF" d="M41 221c2 2.625 2 2.625 3 6-.625 3.75-.625 3.75-2 7-3.496 2.33-4.887 2.588-9 2-2.437-2-2.437-2-4-5-.28-2.886-.01-5.28 1-8 3.54-3.337 6.473-3.673 11-2" id="svg-layer-8" style="pointer-events: all;"/><path fill="#00539F" d="M123 216h3v36h-4v-25h-8v-4l3.375-1.25c2.618-1.105 3.46-1.499 5.063-3.937.185-.599.37-1.197.562-1.813M142 247h6v5h-5zM145.563 225.938 148 226v5h-5c-.562-1.937-.562-1.937-1-4 1-1 1-1 3.563-1.062" id="svg-layer-9" style="pointer-events: all;"/></svg>